<?xml version="1.0" encoding="UTF-8"?>
<!-- Generator: Adobe Illustrator 25.0.0, SVG Export Plug-In . SVG Version: 6.00 Build 0)  -->
<svg width="722" height="402" enable-background="new 0 0 1000 775" version="1.1" viewBox="0 0 722 402" xml:space="preserve" xmlns="http://www.w3.org/2000/svg">
<g transform="matrix(1.2586,0,0,1.2586,-83.794,61.69)" fill="#333" stroke-linecap="round" stroke-linejoin="round" stroke-miterlimit="10"><g stroke-width="2.75"><path d="m295.47 234.41c0.028-11.268-5.769-21.98-15.218-28.119-17.267-11.233-40.396-4.511-48.952 14.227-4.001 8.732-4.001 19.054 0 27.786 8.557 18.738 31.686 25.46 48.952 14.227 9.449-6.141 15.247-16.853 15.218-28.121z"/><path d="m283 234.41c0.024-7.071-3.635-13.832-9.568-17.68-10.849-7.064-25.405-2.833-30.778 8.945-2.514 5.47-2.514 11.999 0 17.47 5.373 11.778 19.929 16.008 30.778 8.945 5.933-3.848 9.592-10.609 9.568-17.68z" stroke="#fff"/><path d="m222.07 163.77c-0.018 2.712-0.644 5.72-2.865 7.496-1.126 0.913-2.54 1.404-3.962 1.608-0.914 0.133-1.851 0.158-2.773 0.117-0.702-0.011-14.625-1.54-15.597-1.66-0.409-0.073-0.81-0.214-1.174-0.414-0.307-0.168-0.593-0.381-0.843-0.626l-10.915-10.701-0.047-0.047-0.047-0.048c-0.152-0.16-0.295-0.338-0.417-0.522-0.675-1.003-0.831-2.327-0.406-3.459 0.146-0.397 0.36-0.772 0.627-1.1 0.098-0.119 0.206-0.238 0.317-0.344l11.022-10.59c0.028-0.016 0.069-0.072 0.096-0.09 0.228-0.204 0.483-0.384 0.753-0.528 0.347-0.186 0.726-0.319 1.114-0.391 0.104-0.018 0.22-0.037 0.326-0.046l14.042-1.38c1.698-0.162 3.446-0.16 5.107 0.268 1.056 0.273 2.077 0.739 2.921 1.437 0.789 0.647 1.41 1.49 1.836 2.415 0.397 0.857 0.642 1.783 0.784 2.715 0.08 0.529 0.13 1.075 0.152 1.609 0.06 3.746-0.01 10.528-0.051 14.281z"/><path d="m182.12 110.05c2.712 4e-3 5.723 0.616 7.511 2.827 0.918 1.121 1.416 2.533 1.628 3.954 0.138 0.913 0.167 1.85 0.131 2.773-8e-3 0.702-1.466 14.632-1.582 15.605-0.071 0.41-0.21 0.811-0.408 1.177-0.167 0.307-0.378 0.595-0.622 0.846l-10.646 10.969s-0.047 0.048-0.047 0.048l-0.048 0.047c-0.159 0.153-0.337 0.297-0.52 0.42-0.999 0.68-2.323 0.842-3.457 0.423-0.398-0.144-0.774-0.356-1.103-0.622-0.119-0.097-0.239-0.205-0.346-0.316l-10.646-10.969c-0.017-0.028-0.073-0.068-0.09-0.096-0.205-0.227-0.386-0.481-0.532-0.75-0.188-0.346-0.323-0.725-0.397-1.112-0.019-0.104-0.038-0.22-0.048-0.326l-1.451-14.035c-0.171-1.697-0.177-3.445 0.242-5.108 0.267-1.058 0.728-2.08 1.422-2.928 0.643-0.792 1.483-1.417 2.405-1.848 0.855-0.401 1.78-0.651 2.711-0.798 0.528-0.083 1.074-0.135 1.608-0.161 3.75-0.077 10.532-0.041 14.285-0.02z"/><path d="m128.64 150.04c4e-3 -2.712 0.616-5.723 2.827-7.511 1.121-0.918 2.533-1.416 3.954-1.628 0.913-0.138 1.85-0.167 2.773-0.131 0.702 8e-3 14.632 1.466 15.605 1.582 0.41 0.071 0.811 0.21 1.177 0.408 0.307 0.167 0.595 0.378 0.846 0.622l10.969 10.646 0.048 0.047 0.047 0.048c0.153 0.159 0.297 0.337 0.42 0.52 0.68 0.999 0.842 2.323 0.423 3.457-0.144 0.398-0.356 0.774-0.622 1.103-0.097 0.119-0.205 0.239-0.316 0.346l-10.969 10.646c-0.028 0.017-0.068 0.073-0.096 0.09-0.227 0.205-0.481 0.386-0.75 0.532-0.346 0.188-0.725 0.323-1.112 0.397-0.104 0.019-0.22 0.038-0.326 0.048l-14.035 1.451c-1.697 0.171-3.445 0.177-5.108-0.242-1.058-0.267-2.08-0.728-2.928-1.422-0.792-0.643-1.417-1.483-1.848-2.405-0.401-0.855-0.651-1.78-0.798-2.711-0.083-0.528-0.135-1.074-0.161-1.608-0.077-3.75-0.041-10.532-0.02-14.285z"/><path d="m168.63 203.52c-2.712-4e-3 -5.723-0.616-7.511-2.827-0.918-1.121-1.416-2.533-1.628-3.954-0.138-0.913-0.167-1.85-0.131-2.773 8e-3 -0.702 1.466-14.632 1.582-15.605 0.071-0.41 0.21-0.811 0.408-1.177 0.167-0.308 0.378-0.595 0.622-0.846l10.646-10.969s0.047-0.048 0.047-0.048l0.048-0.047c0.159-0.153 0.337-0.297 0.52-0.42 0.999-0.68 2.323-0.842 3.457-0.423 0.398 0.144 0.774 0.356 1.103 0.622 0.119 0.097 0.239 0.205 0.346 0.316l10.646 10.969c0.017 0.028 0.073 0.068 0.09 0.096 0.205 0.227 0.386 0.481 0.532 0.75 0.188 0.346 0.323 0.725 0.397 1.112 0.019 0.104 0.038 0.22 0.048 0.326l1.451 14.035c0.171 1.697 0.177 3.445-0.242 5.108-0.267 1.058-0.728 2.08-1.422 2.928-0.643 0.792-1.483 1.417-2.405 1.848-0.855 0.401-1.78 0.651-2.711 0.798-0.528 0.083-1.074 0.135-1.608 0.161-3.75 0.077-10.533 0.041-14.285 0.02z"/><path d="m137.36 74.182 1.208-7.702c0.028-0.166 0.062-0.343 0.106-0.505 0.147-0.554 0.39-1.085 0.715-1.557 0.259-0.377 0.574-0.722 0.926-1.014 0.221-0.226 1.85-1.211 2.156-1.419 6.743-4.216 13.925-7.994 21.508-10.448 4.503-1.468 9.234-2.422 13.935-2.968 4.451-0.52 9.074-0.897 13.555-0.863 4.242 0.022 8.538 0.399 12.733 1.02 1.36 0.206 3.254 0.499 4.602 0.788 0.333 0.091 0.663 0.22 0.97 0.378 0.98 0.502 1.784 1.338 2.247 2.337 0.145 0.313 0.262 0.648 0.339 0.984 0.011 0.075 0.043 0.179 0.052 0.255 0 0 1.496 8.413 1.496 8.413"/><path d="m411.32 234.41c-0.028-11.268 5.769-21.98 15.218-28.119 17.267-11.233 40.396-4.511 48.952 14.227 4.001 8.732 4.001 19.054 0 27.786-8.557 18.738-31.686 25.46-48.952 14.227-9.45-6.141-15.247-16.853-15.218-28.121z"/><path d="m423.79 234.41c-0.024-7.071 3.635-13.832 9.568-17.68 10.849-7.064 25.405-2.833 30.778 8.945 2.514 5.47 2.514 11.999 0 17.47-5.373 11.778-19.929 16.008-30.778 8.945-5.933-3.848-9.592-10.609-9.568-17.68z" stroke="#fff"/></g><g stroke-width="2"><path d="m356.91 231.67c-1e-3 -2.727 1e-3 -6.188-1e-3 -8.915-3e-3 -0.247-0.018-0.5-0.058-0.744-0.05-0.319-0.161-0.669-0.355-0.922-0.195-0.259-0.452-0.413-0.749-0.496-0.042-0.013-0.078-0.022-0.103-0.027-0.188-0.042-0.379-0.017-0.532 0.072-0.019 0.011-0.025 0.015-0.025 0.015-0.018 0.012-0.025 0.016-0.025 0.016-0.018 0.013-0.024 0.017-0.024 0.017-0.018 0.014-0.023 0.018-0.023 0.018-0.017 0.014-0.023 0.019-0.023 0.019-0.017 0.015-0.022 0.02-0.022 0.02-0.301 0.296-0.385 0.704-0.42 1.101-0.024 6.819 0 15.482-8e-3 22.302-1.811-0.528-4.128-1.31-5.938-1.869-0.05-8.013 0-18.308-0.017-26.335 2.469 0.477 4.988 1.224 7.386 1.98 1.921 0.625 3.918 1.346 5.423 2.742 0.697 0.65 1.238 1.466 1.569 2.36 0.438 1.172 0.562 2.441 0.578 3.684 0.021 1.602-0.237 3.361-1.374 4.573-0.602 0.641-1.45 1.012-2.325 1.061-1.018 0.065-2.026-0.235-2.934-0.672z"/><path d="m371.15 237.54c-0.422 0.514-1.014 0.858-1.597 1.16-0.325 0.162-0.67 0.317-1.013 0.437-3.909 1.404-8.953 3.216-12.861 4.62-0.027-1.039 0-2.39-9e-3 -3.435 2.946-1.08 6.724-2.393 9.679-3.46 0.239-0.093 0.502-0.22 0.68-0.394l0.021-0.021c0.015-0.016 0.019-0.021 0.019-0.021 0.013-0.016 0.018-0.021 0.018-0.021 0.012-0.016 0.016-0.021 0.016-0.021 0.011-0.016 0.015-0.021 0.015-0.021 0.01-0.016 0.013-0.021 0.013-0.021 9e-3 -0.016 0.012-0.021 0.012-0.021 8e-3 -0.016 0.011-0.021 0.011-0.021 7e-3 -0.016 9e-3 -0.021 9e-3 -0.021 6e-3 -0.016 8e-3 -0.021 8e-3 -0.021 5e-3 -0.016 6e-3 -0.021 6e-3 -0.021 4e-3 -0.016 5e-3 -0.021 5e-3 -0.021 3e-3 -0.016 3e-3 -0.021 3e-3 -0.021 2e-3 -0.015 2e-3 -0.021 2e-3 -0.021 1e-3 -0.015 1e-3 -0.02 1e-3 -0.02-1e-3 -0.015-1e-3 -0.02-1e-3 -0.02-2e-3 -0.015-2e-3 -0.02-2e-3 -0.02l-4e-3 -0.02c-4e-3 -0.015-5e-3 -0.02-5e-3 -0.02-5e-3 -0.015-7e-3 -0.02-7e-3 -0.02l-8e-3 -0.02c-7e-3 -0.015-0.01-0.019-0.01-0.019-8e-3 -0.014-0.011-0.019-0.011-0.019-9e-3 -0.014-0.013-0.019-0.013-0.019-0.01-0.014-0.014-0.019-0.014-0.019-0.016-0.019-0.02-0.023-0.02-0.023-0.018-0.018-0.022-0.023-0.022-0.023-0.014-0.014-0.019-0.018-0.019-0.018-0.016-0.013-0.021-0.018-0.021-0.018-0.017-0.013-0.022-0.018-0.022-0.018-0.346-0.24-0.813-0.301-1.218-0.341-0.732-0.055-1.479 9e-3 -2.193 0.177-0.182 0.044-0.367 0.097-0.543 0.161-1.94 0.683-4.425 1.558-6.365 2.242-0.036-0.011-0.011-0.12-0.018-0.147v-3.414c1.384-0.517 2.867-0.811 4.329-1.017 1.535-0.21 3.108-0.202 4.646-0.027 1.39 0.162 2.783 0.459 4.094 0.954 0.768 0.25 1.551 0.56 2.159 1.107 0.266 0.243 0.501 0.571 0.561 0.925 0.067 0.387-0.073 0.765-0.311 1.062z"/><path d="m337.66 239.96c-0.881-0.257-1.829-0.638-2.412-1.378-0.281-0.359-0.415-0.834-0.277-1.261 0.172-0.559 0.662-0.88 1.13-1.167 0.875-0.521 1.831-0.919 2.791-1.252 2.603-0.926 5.934-2.11 8.537-3.036 4e-3 1.051 0 2.399 2e-3 3.451-1.92 0.719-4.366 1.557-6.291 2.265-0.222 0.09-0.467 0.213-0.631 0.375l-0.021 0.021c-0.014 0.016-0.019 0.021-0.019 0.021-0.013 0.016-0.018 0.021-0.018 0.021-0.012 0.016-0.016 0.021-0.016 0.021-0.011 0.016-0.015 0.021-0.015 0.021-0.01 0.016-0.013 0.021-0.013 0.021-9e-3 0.016-0.012 0.021-0.012 0.021-8e-3 0.016-0.011 0.021-0.011 0.021-7e-3 0.016-9e-3 0.021-9e-3 0.021-6e-3 0.016-8e-3 0.021-8e-3 0.021-5e-3 0.016-6e-3 0.021-6e-3 0.021-4e-3 0.016-5e-3 0.021-5e-3 0.021-3e-3 0.016-3e-3 0.021-3e-3 0.021-2e-3 0.015-2e-3 0.021-2e-3 0.021-1e-3 0.015-1e-3 0.02-1e-3 0.02 1e-3 0.015 1e-3 0.02 1e-3 0.02 2e-3 0.015 2e-3 0.02 2e-3 0.02l4e-3 0.02c4e-3 0.015 5e-3 0.02 5e-3 0.02 5e-3 0.015 7e-3 0.02 7e-3 0.02l8e-3 0.02c7e-3 0.015 0.01 0.019 0.01 0.019 8e-3 0.014 0.011 0.019 0.011 0.019 9e-3 0.014 0.013 0.019 0.013 0.019 0.01 0.014 0.014 0.019 0.014 0.019 0.016 0.019 0.02 0.023 0.02 0.023 0.018 0.018 0.022 0.023 0.022 0.023 0.014 0.014 0.019 0.018 0.019 0.018 0.016 0.013 0.021 0.018 0.021 0.018 0.017 0.013 0.022 0.018 0.022 0.018 0.204 0.146 0.419 0.204 0.652 0.259 0.316 0.068 0.642 0.095 0.964 0.1 0.659 7e-3 1.327-0.068 1.964-0.238 1.049-0.334 2.272-0.819 3.312-1.184 0.024 0.933 0 2.147 8e-3 3.085-1.103 0.223-2.271 0.338-3.401 0.355-2.153 0.033-4.322-0.309-6.368-0.984z"/></g><g stroke-width="2.75"><path d="m217.13 81.235c-1.225 0.272-2.366 0.909-3.24 1.809-0.874 0.895-1.48 2.049-1.72 3.277-0.174 0.88-0.163 1.798 0.033 2.673 0.026 0.073 2.924 13.124 2.945 13.188 0.044 0.188 0.099 0.382 0.16 0.565 0.196 0.591 0.48 1.156 0.836 1.667 0.745 1.072 1.822 1.909 3.045 2.366 1.174 0.443 2.478 0.534 3.702 0.259 1.225-0.272 2.366-0.909 3.24-1.809 0.893-0.914 1.506-2.099 1.735-3.357 0.118-0.639 0.139-1.299 0.062-1.944-0.023-0.192-0.055-0.391-0.096-0.579 1e-3 -0.047-2.94-13.13-2.944-13.188-0.189-0.849-0.552-1.661-1.059-2.368-0.743-1.04-1.801-1.852-2.998-2.3-1.173-0.443-2.477-0.534-3.701-0.259z"/><path d="m366.97 265.43c8e-3 1.19-0.727 2.317-1.82 2.789-0.32 0.141-0.667 0.226-1.016 0.25-0.067 4e-3 -0.144 7e-3 -0.21 7e-3h-21.056c-0.12 0-0.248-8e-3 -0.367-0.022-0.382-0.046-0.757-0.167-1.095-0.352-0.996-0.534-1.631-1.648-1.582-2.778 0.029-1.075 0.673-2.1 1.629-2.592 0.341-0.179 0.718-0.293 1.101-0.333 0.102-0.01 0.212-0.016 0.315-0.016h21.056c0.083 0 0.179 4e-3 0.263 0.011 0.331 0.029 0.66 0.113 0.964 0.246 1.091 0.472 1.827 1.6 1.818 2.79z"/><path d="m489.66 81.235c1.225 0.272 2.366 0.909 3.24 1.809 0.874 0.895 1.48 2.049 1.72 3.277 0.174 0.88 0.163 1.798-0.034 2.673-0.026 0.073-2.924 13.124-2.945 13.188-0.044 0.188-0.099 0.382-0.16 0.565-0.196 0.591-0.48 1.156-0.836 1.667-0.745 1.072-1.822 1.909-3.045 2.366-1.174 0.443-2.478 0.534-3.702 0.259-1.225-0.272-2.366-0.909-3.24-1.809-0.893-0.914-1.506-2.099-1.735-3.357-0.118-0.639-0.139-1.299-0.062-1.944 0.023-0.192 0.055-0.391 0.096-0.579-1e-3 -0.047 2.94-13.13 2.944-13.188 0.189-0.849 0.552-1.661 1.059-2.368 0.743-1.04 1.801-1.852 2.998-2.3 1.174-0.443 2.478-0.534 3.702-0.259z"/></g><g stroke-width="2.75"><path d="m569.43 74.182-1.208-7.702c-0.028-0.166-0.062-0.343-0.106-0.505-0.147-0.554-0.39-1.085-0.715-1.557-0.26-0.377-0.574-0.722-0.926-1.014-0.221-0.226-1.85-1.211-2.156-1.419-6.743-4.216-13.925-7.994-21.508-10.448-4.503-1.468-9.234-2.422-13.935-2.968-4.451-0.52-9.074-0.897-13.555-0.863-4.242 0.022-8.538 0.399-12.733 1.02-1.36 0.206-3.254 0.499-4.602 0.788-0.333 0.091-0.663 0.22-0.97 0.378-0.98 0.502-1.784 1.338-2.247 2.337-0.145 0.313-0.262 0.648-0.339 0.984-0.011 0.075-0.043 0.179-0.052 0.255 0 0-1.496 8.413-1.496 8.413"/><path d="m507.83 156.67c0.023-6.332-3.259-12.397-8.573-15.841-9.717-6.329-22.766-2.537-27.577 8.014-2.252 4.898-2.252 10.755 0 15.653 4.811 10.551 17.861 14.344 27.577 8.014 5.314-3.443 8.596-9.508 8.573-15.84z"/><path d="m591.79 156.67c0.023-6.332-3.259-12.397-8.573-15.841-9.717-6.329-22.766-2.537-27.577 8.014-2.252 4.898-2.252 10.755 0 15.653 4.811 10.551 17.861 14.344 27.577 8.014 5.314-3.443 8.596-9.508 8.573-15.84z"/><path d="m530.89 179.72c-6.332-0.023-12.397 3.259-15.841 8.573-6.329 9.717-2.537 22.766 8.015 27.577 4.898 2.252 10.755 2.252 15.653 0 10.551-4.811 14.344-17.861 8.014-27.577-3.445-5.313-9.509-8.595-15.841-8.573z"/><path d="m530.89 95.767c-6.332-0.023-12.397 3.259-15.841 8.573-6.329 9.717-2.537 22.766 8.015 27.577 4.898 2.252 10.755 2.252 15.653 0 10.551-4.811 14.344-17.861 8.014-27.577-3.445-5.314-9.509-8.596-15.841-8.573z"/><path d="m456.57 126.24c2.681-14.098 7.871-41.573 10.178-55.731 0.07-0.657 0.136-1.339 0.119-2.001-0.01-0.774-0.091-1.553-0.27-2.306-0.292-1.254-0.877-2.441-1.71-3.424-1.091-1.297-2.548-2.238-4.071-2.952-2.349-1.091-4.909-1.728-7.439-2.242-3.667-0.735-7.876-1.225-11.605-1.671-28.717-3.432-59.442-3.773-88.378-3.866-28.945 0.095-59.648 0.433-88.378 3.866-3.713 0.448-7.936 0.936-11.605 1.671-2.529 0.514-5.091 1.151-7.439 2.242-1.523 0.714-2.981 1.655-4.071 2.952-0.632 0.749-1.128 1.615-1.452 2.54-0.32 0.911-0.48 1.876-0.519 2.839-0.036 0.692 9e-3 1.402 0.079 2.09 2.326 14.273 7.463 41.795 10.209 55.994 1.288 8.903 2.894 17.942 5.96 26.423 2.49 6.821 6.273 13.623 12.588 17.56 3.746 2.38 8.106 3.615 12.464 4.271 2.61 0.397 5.389 0.609 8.029 0.734 8.826 0.373 54.393 0.116 64.137 0.188 9.98-0.082 54.985 0.202 64.136-0.188 2.821-0.135 5.774-0.364 8.563-0.818 4.096-0.66 8.181-1.858 11.726-4.06 2.419-1.489 4.554-3.429 6.332-5.64 2.871-3.567 4.884-7.77 6.46-12.047 3.063-8.481 4.671-17.522 5.957-26.424z"/></g></g><g transform="matrix(1.2586 0 0 1.2586 -81.794 -607.99)" fill="#333"><path d="m171.85 485.45c-2.5307-0.0188-5.0682 0.34412-7.4082 1.3281-2.42 1-4.5606 2.5932-6.4316 4.4082-2.056 1.99-3.8742 4.2902-5.5312 6.6172-3.039 4.293-5.6642 9.0472-8.0312 13.74-3.84 7.718-7.1837 15.95-10.098 24.061-3.153 8.8579-5.9307 17.946-7.9668 27.178 26.926-1.653 56.676-1.0369 83.725-0.2207-0.0499-7.7603-0.14543-16.043-0.5332-22.285-0.527-9.056-1.5286-18.256-4.1406-26.971-2.243-7.462-5.6828-14.952-11.799-20.02-2.7-2.242-5.8249-3.9515-9.0859-5.2285-3.256-1.263-6.6997-2.1288-10.178-2.4688-0.8345-0.0822-1.6779-0.13241-2.5215-0.13867z"/><path d="m535.17 485.45c-1.0249-2.5e-4 -2.0495 0.062-3.0645 0.16797-2.901 0.308-5.787 0.99222-8.541 1.9492-2.771 0.972-5.4572 2.2472-7.9102 3.8652-2.572 1.689-4.854 3.8241-6.748 6.2461-2.224 2.829-3.953 6.0522-5.334 9.3672-3.549 8.593-5.1029 17.923-5.9219 27.143-0.76548 8.478-0.92736 18.844-0.98633 28.373 27.055-0.81653 56.813-1.435 83.746 0.21875-0.95226-4.3072-2.1131-8.793-3.4863-13.436-3.854-12.894-8.623-25.727-14.584-37.801-2.863-5.673-6.0444-11.354-9.9824-16.357-2.451-3.073-5.2561-6.0248-8.7891-7.8418-1.664-0.856-3.4839-1.4235-5.3359-1.6855-1.0125-0.145-2.0376-0.20874-3.0625-0.20899z"/></g>
</svg>
